<svg width="34" height="34" viewBox="0 0 34 34" fill="none" xmlns="http://www.w3.org/2000/svg">
<path d="M27.2623 11.7758L17.6373 17.3508C17.2498 17.5758 16.7623 17.5758 16.3623 17.3508L6.73728 11.7758C6.04978 11.3758 5.87478 10.4383 6.39978 9.85078C6.76228 9.43828 7.17478 9.10078 7.61228 8.86328L14.3873 5.11328C15.8373 4.30078 18.1873 4.30078 19.6373 5.11328L26.4123 8.86328C26.8498 9.10078 27.2623 9.45078 27.6248 9.85078C28.1248 10.4383 27.9498 11.3758 27.2623 11.7758Z" fill="#A70000"/>
<path d="M16.2871 19.6746V28.1996C16.2871 29.1496 15.3246 29.7746 14.4746 29.3621C11.8996 28.0996 7.56211 25.7371 7.56211 25.7371C6.03711 24.8746 4.78711 22.6996 4.78711 20.9121V14.4621C4.78711 13.4746 5.82461 12.8496 6.67461 13.3371L15.6621 18.5496C16.0371 18.7871 16.2871 19.2121 16.2871 19.6746Z" fill="#A70000"/>
<path d="M17.7129 19.6746V28.1996C17.7129 29.1496 18.6754 29.7746 19.5254 29.3621C22.1004 28.0996 26.4379 25.7371 26.4379 25.7371C27.9629 24.8746 29.2129 22.6996 29.2129 20.9121V14.4621C29.2129 13.4746 28.1754 12.8496 27.3254 13.3371L18.3379 18.5496C17.9629 18.7871 17.7129 19.2121 17.7129 19.6746Z" fill="#A70000"/>
</svg>
