<svg width="34" height="34" viewBox="0 0 34 34" fill="none" xmlns="http://www.w3.org/2000/svg">
<path d="M24.24 10.5786H23.84L20.46 7.19859C20.19 6.92859 19.75 6.92859 19.47 7.19859C19.2 7.46859 19.2 7.90859 19.47 8.18859L21.86 10.5786H12.14L14.53 8.18859C14.8 7.91859 14.8 7.47859 14.53 7.19859C14.26 6.92859 13.82 6.92859 13.54 7.19859L10.17 10.5786H9.77C8.87 10.5786 7 10.5786 7 13.1386C7 14.1086 7.2 14.7486 7.62 15.1686C7.86 15.4186 8.15 15.5486 8.46 15.6186C8.75 15.6886 9.06 15.6986 9.36 15.6986H24.64C24.95 15.6986 25.24 15.6786 25.52 15.6186C26.36 15.4186 27 14.8186 27 13.1386C27 10.5786 25.13 10.5786 24.24 10.5786Z" fill="#A70000"/>
<path d="M24.0506 17H9.87064C9.25064 17 8.78064 17.55 8.88064 18.16L9.72064 23.3C10.0006 25.02 10.7506 27 14.0806 27H19.6906C23.0606 27 23.6606 25.31 24.0206 23.42L25.0306 18.19C25.1506 17.57 24.6806 17 24.0506 17ZM15.6106 23.45C15.6106 23.84 15.3006 24.15 14.9206 24.15C14.5306 24.15 14.2206 23.84 14.2206 23.45V20.15C14.2206 19.77 14.5306 19.45 14.9206 19.45C15.3006 19.45 15.6106 19.77 15.6106 20.15V23.45ZM19.8906 23.45C19.8906 23.84 19.5806 24.15 19.1906 24.15C18.8106 24.15 18.4906 23.84 18.4906 23.45V20.15C18.4906 19.77 18.8106 19.45 19.1906 19.45C19.5806 19.45 19.8906 19.77 19.8906 20.15V23.45Z" fill="#A70000"/>
</svg>
