<svg width="34" height="34" viewBox="0 0 34 34" fill="none" xmlns="http://www.w3.org/2000/svg">
<rect x="3" y="9" width="28" height="6" rx="3" fill="white"/>
<rect x="19" y="4.41406" width="2" height="10.9153" rx="1" transform="rotate(-45 19 4.41406)" fill="white"/>
<rect x="13.7188" y="3" width="2" height="10.9153" rx="1" transform="rotate(45 13.7188 3)" fill="white"/>
<path d="M28.0662 17C29.4758 17.0001 30.443 18.4194 29.9275 19.7314L25.9988 29.7314C25.6981 30.4967 24.9598 31 24.1375 31H9.86407C9.04176 31 8.30245 30.4968 8.00177 29.7314L4.07403 19.7314C3.55859 18.4194 4.5257 17 5.93536 17H28.0662ZM15.7049 19V22.332H12.0008V24.332H15.7049V28H17.9275V24.332H22.0008V22.332H17.9275V19H15.7049Z" fill="white"/>
</svg>
