<svg width="34" height="34" viewBox="0 0 34 34" fill="none" xmlns="http://www.w3.org/2000/svg">
<circle cx="17" cy="17" r="15" fill="#FF4B4B" fill-opacity="0.41"/>
<path d="M26.5609 15.7386L25.2009 14.1586C24.9409 13.8586 24.7309 13.2986 24.7309 12.8986V11.1986C24.7309 10.1386 23.8609 9.26859 22.8009 9.26859H21.1009C20.7109 9.26859 20.1409 9.05859 19.8409 8.79859L18.2609 7.43859C17.5709 6.84859 16.4409 6.84859 15.7409 7.43859L14.1709 8.80859C13.8709 9.05859 13.3009 9.26859 12.9109 9.26859H11.1809C10.1209 9.26859 9.25086 10.1386 9.25086 11.1986V12.9086C9.25086 13.2986 9.04086 13.8586 8.79086 14.1586L7.44086 15.7486C6.86086 16.4386 6.86086 17.5586 7.44086 18.2486L8.79086 19.8386C9.04086 20.1386 9.25086 20.6986 9.25086 21.0886V22.7986C9.25086 23.8586 10.1209 24.7286 11.1809 24.7286H12.9109C13.3009 24.7286 13.8709 24.9386 14.1709 25.1986L15.7509 26.5586C16.4409 27.1486 17.5709 27.1486 18.2709 26.5586L19.8509 25.1986C20.1509 24.9386 20.7109 24.7286 21.1109 24.7286H22.8109C23.8709 24.7286 24.7409 23.8586 24.7409 22.7986V21.0986C24.7409 20.7086 24.9509 20.1386 25.2109 19.8386L26.5709 18.2586C27.1509 17.5686 27.1509 16.4286 26.5609 15.7386ZM21.6809 16.9986L20.5109 20.5586C20.3609 21.1486 19.7309 21.6286 19.0909 21.6286H17.2409C16.9209 21.6286 16.4709 21.5186 16.2709 21.3186L14.8009 20.1686C14.7709 20.8086 14.4809 21.0786 13.7709 21.0786H13.2909C12.5509 21.0786 12.2509 20.7886 12.2509 20.0886V15.3086C12.2509 14.6086 12.5509 14.3186 13.2909 14.3186H13.7809C14.5209 14.3186 14.8209 14.6086 14.8209 15.3086V15.6686L16.7609 12.7886C16.9609 12.4786 17.4709 12.2586 17.9009 12.4286C18.3709 12.5886 18.6709 13.1086 18.5709 13.5686L18.3309 15.1286C18.3109 15.2686 18.3409 15.3986 18.4309 15.4986C18.5109 15.5886 18.6309 15.6486 18.7609 15.6486H20.7109C21.0909 15.6486 21.4109 15.7986 21.6009 16.0686C21.7709 16.3286 21.8009 16.6586 21.6809 16.9986Z" fill="#A70000"/>
</svg>
