<svg width="34" height="34" viewBox="0 0 34 34" fill="none" xmlns="http://www.w3.org/2000/svg">
<path d="M27.3013 12.3437L19.6596 6.23039C18.1663 5.04039 15.833 5.02872 14.3513 6.21872L6.70963 12.3437C5.61296 13.2187 4.94796 14.9687 5.1813 16.3454L6.6513 25.1421C6.98963 27.1137 8.8213 28.6654 10.8163 28.6654H23.183C25.1546 28.6654 27.0213 27.0787 27.3596 25.1304L28.8296 16.3337C29.0396 14.9687 28.3746 13.2187 27.3013 12.3437ZM17.8746 23.9987C17.8746 24.4771 17.478 24.8737 16.9996 24.8737C16.5213 24.8737 16.1246 24.4771 16.1246 23.9987V20.4987C16.1246 20.0204 16.5213 19.6237 16.9996 19.6237C17.478 19.6237 17.8746 20.0204 17.8746 20.4987V23.9987Z" fill="#A70000"/>
</svg>
