<svg width="34" height="34" viewBox="0 0 34 34" fill="none" xmlns="http://www.w3.org/2000/svg">
<circle cx="17" cy="17" r="15" fill="#FF4B4B" fill-opacity="0.41"/>
<path d="M10 18C9.06 18 8.19 18.33 7.5 18.88C6.58 19.61 6 20.74 6 22C6 22.75 6.21 23.46 6.58 24.06C7.27 25.22 8.54 26 10 26C11.01 26 11.93 25.63 12.63 25C12.94 24.74 13.21 24.42 13.42 24.06C13.79 23.46 14 22.75 14 22C14 19.79 12.21 18 10 18ZM12.07 21.57L9.94 23.54C9.8 23.67 9.61 23.74 9.43 23.74C9.24 23.74 9.05 23.67 8.9 23.52L7.91 22.53C7.62 22.24 7.62 21.76 7.91 21.47C8.2 21.18 8.68 21.18 8.97 21.47L9.45 21.95L11.05 20.47C11.35 20.19 11.83 20.21 12.11 20.51C12.39 20.81 12.37 21.29 12.07 21.57Z" fill="#A70000"/>
<path d="M19.85 6.95078V10.7508H18.35V6.95078C18.35 6.68078 18.11 6.55078 17.95 6.55078C17.9 6.55078 17.85 6.56078 17.8 6.58078L9.87 9.57078C9.34 9.77078 9 10.2708 9 10.8408V11.5108C8.09 12.1908 7.5 13.2808 7.5 14.5108V10.8408C7.5 9.65078 8.23 8.59078 9.34 8.17078L17.28 5.17078C17.5 5.09078 17.73 5.05078 17.95 5.05078C18.95 5.05078 19.85 5.86078 19.85 6.95078Z" fill="#A70000"/>
<path d="M26.5007 17.5V18.5C26.5007 18.77 26.2907 18.99 26.0107 19H24.5507C24.0207 19 23.5407 18.61 23.5007 18.09C23.4707 17.78 23.5907 17.49 23.7907 17.29C23.9707 17.1 24.2207 17 24.4907 17H26.0007C26.2907 17.01 26.5007 17.23 26.5007 17.5Z" fill="#A70000"/>
<path d="M24.48 15.95H25.5C26.05 15.95 26.5 15.5 26.5 14.95V14.51C26.5 12.44 24.81 10.75 22.74 10.75H11.26C10.41 10.75 9.63 11.03 9 11.51C8.09 12.19 7.5 13.28 7.5 14.51V16.29C7.5 16.67 7.9 16.91 8.26 16.79C8.82 16.6 9.41 16.5 10 16.5C13.03 16.5 15.5 18.97 15.5 22C15.5 22.72 15.31 23.51 15.01 24.21C14.85 24.57 15.1 25 15.49 25H22.74C24.81 25 26.5 23.31 26.5 21.24V21.05C26.5 20.5 26.05 20.05 25.5 20.05H24.63C23.67 20.05 22.75 19.46 22.5 18.53C22.3 17.77 22.54 17.03 23.04 16.55C23.41 16.17 23.92 15.95 24.48 15.95ZM19 15.75H14C13.59 15.75 13.25 15.41 13.25 15C13.25 14.59 13.59 14.25 14 14.25H19C19.41 14.25 19.75 14.59 19.75 15C19.75 15.41 19.41 15.75 19 15.75Z" fill="#A70000"/>
</svg>
