<svg width="34" height="34" viewBox="0 0 34 34" fill="none" xmlns="http://www.w3.org/2000/svg">
<circle cx="17" cy="17" r="15" fill="#FF4B4B" fill-opacity="0.41"/>
<path d="M26.5309 15.8689L25.0109 14.3489C24.7509 14.0889 24.5409 13.5789 24.5409 13.2189V11.0589C24.5409 10.1789 23.8209 9.45891 22.9409 9.45891H20.7909C20.4309 9.45891 19.9209 9.24891 19.6609 8.98891L18.1409 7.46891C17.5209 6.84891 16.5009 6.84891 15.8809 7.46891L14.3409 8.98891C14.0909 9.24891 13.5809 9.45891 13.2109 9.45891H11.0609C10.1809 9.45891 9.46086 10.1789 9.46086 11.0589V13.2089C9.46086 13.5689 9.25086 14.0789 8.99086 14.3389L7.47086 15.8589C6.85086 16.4789 6.85086 17.4989 7.47086 18.1189L8.99086 19.6389C9.25086 19.8989 9.46086 20.4089 9.46086 20.7689V22.9189C9.46086 23.7989 10.1809 24.5189 11.0609 24.5189H13.2109C13.5709 24.5189 14.0809 24.7289 14.3409 24.9889L15.8609 26.5089C16.4809 27.1289 17.5009 27.1289 18.1209 26.5089L19.6409 24.9889C19.9009 24.7289 20.4109 24.5189 20.7709 24.5189H22.9209C23.8009 24.5189 24.5209 23.7989 24.5209 22.9189V20.7689C24.5209 20.4089 24.7309 19.8989 24.9909 19.6389L26.5109 18.1189C27.1609 17.5089 27.1609 16.4889 26.5309 15.8689ZM13.0009 13.9989C13.0009 13.4489 13.4509 12.9989 14.0009 12.9989C14.5509 12.9989 15.0009 13.4489 15.0009 13.9989C15.0009 14.5489 14.5609 14.9989 14.0009 14.9989C13.4509 14.9989 13.0009 14.5489 13.0009 13.9989ZM14.5309 20.5289C14.3809 20.6789 14.1909 20.7489 14.0009 20.7489C13.8109 20.7489 13.6209 20.6789 13.4709 20.5289C13.1809 20.2389 13.1809 19.7589 13.4709 19.4689L19.4709 13.4689C19.7609 13.1789 20.2409 13.1789 20.5309 13.4689C20.8209 13.7589 20.8209 14.2389 20.5309 14.5289L14.5309 20.5289ZM20.0009 20.9989C19.4409 20.9989 18.9909 20.5489 18.9909 19.9989C18.9909 19.4489 19.4409 18.9989 19.9909 18.9989C20.5409 18.9989 20.9909 19.4489 20.9909 19.9989C20.9909 20.5489 20.5509 20.9989 20.0009 20.9989Z" fill="#A70000"/>
</svg>
