<svg width="34" height="34" viewBox="0 0 34 34" fill="none" xmlns="http://www.w3.org/2000/svg">
<path d="M16.01 25.02C20.9861 25.02 25.02 20.9861 25.02 16.01C25.02 11.0339 20.9861 7 16.01 7C11.0339 7 7 11.0339 7 16.01C7 20.9861 11.0339 25.02 16.01 25.02Z" fill="white"/>
<path d="M26.9901 23.95C26.6601 23.34 25.9601 23 25.0201 23C24.3101 23 23.7001 23.29 23.3401 23.79C22.9801 24.29 22.9001 24.96 23.1201 25.63C23.5501 26.93 24.3001 27.22 24.7101 27.27C24.7701 27.28 24.8301 27.28 24.9001 27.28C25.3401 27.28 26.0201 27.09 26.6801 26.1C27.2101 25.33 27.3101 24.56 26.9901 23.95Z" fill="white"/>
</svg>
