<svg width="34" height="34" viewBox="0 0 34 34" fill="none" xmlns="http://www.w3.org/2000/svg">
<circle cx="17" cy="17" r="15" fill="#FF4B4B" fill-opacity="0.41"/>
<path d="M26.5 20.5C26.78 20.5 27 20.72 27 21V22C27 23.66 25.66 25 24 25C24 23.35 22.65 22 21 22C19.35 22 18 23.35 18 25H16C16 23.35 14.65 22 13 22C11.35 22 10 23.35 10 25C8.34 25 7 23.66 7 22V20C7 19.45 7.45 19 8 19H17.5C18.88 19 20 17.88 20 16.5V11C20 10.45 20.45 10 21 10H21.84C22.56 10 23.22 10.39 23.58 11.01L24.22 12.13C24.31 12.29 24.19 12.5 24 12.5C22.62 12.5 21.5 13.62 21.5 15V18C21.5 19.38 22.62 20.5 24 20.5H26.5Z" fill="#A70000"/>
<path d="M13 27C14.1046 27 15 26.1046 15 25C15 23.8954 14.1046 23 13 23C11.8954 23 11 23.8954 11 25C11 26.1046 11.8954 27 13 27Z" fill="#A70000"/>
<path d="M21 27C22.1046 27 23 26.1046 23 25C23 23.8954 22.1046 23 21 23C19.8954 23 19 23.8954 19 25C19 26.1046 19.8954 27 21 27Z" fill="#A70000"/>
<path d="M27 17.53V19H24C23.45 19 23 18.55 23 18V15C23 14.45 23.45 14 24 14H25.29L26.74 16.54C26.91 16.84 27 17.18 27 17.53Z" fill="#A70000"/>
<path d="M18.08 7H10.69C8.9 7 7.4 8.28 7.07 9.98H11.44C11.82 9.98 12.12 10.29 12.12 10.67C12.12 11.05 11.82 11.35 11.44 11.35H7V12.73H9.6C9.98 12.73 10.29 13.04 10.29 13.42C10.29 13.8 9.98 14.1 9.6 14.1H7V15.48H7.77C8.15 15.48 8.46 15.79 8.46 16.17C8.46 16.55 8.15 16.85 7.77 16.85H7V17.08C7 17.63 7.45 18.08 8 18.08H17.15C18.17 18.08 19 17.25 19 16.23V7.92C19 7.41 18.59 7 18.08 7Z" fill="#A70000"/>
<path d="M7.07 9.98047H6.92H5.94C5.56 9.98047 5.25 10.2905 5.25 10.6705C5.25 11.0505 5.56 11.3505 5.94 11.3505H6.85H7V10.6905C7 10.4505 7.03 10.2105 7.07 9.98047Z" fill="#A70000"/>
<path d="M6.85 12.7305H5.94C5.56 12.7305 5.25 13.0405 5.25 13.4205C5.25 13.8005 5.56 14.1005 5.94 14.1005H6.85H7V12.7305H6.85Z" fill="#A70000"/>
<path d="M6.85 15.4805H5.94C5.56 15.4805 5.25 15.7905 5.25 16.1705C5.25 16.5505 5.56 16.8505 5.94 16.8505H6.85H7V15.4805H6.85Z" fill="#A70000"/>
</svg>
