<svg width="34" height="34" viewBox="0 0 34 34" fill="none" xmlns="http://www.w3.org/2000/svg">
<circle cx="17" cy="17" r="15" fill="#FF4B4B" fill-opacity="0.41"/>
<path d="M26.5 20.5C26.78 20.5 27 20.72 27 21V22C27 23.66 25.66 25 24 25C24 23.35 22.65 22 21 22C19.35 22 18 23.35 18 25H16C16 23.35 14.65 22 13 22C11.35 22 10 23.35 10 25C8.34 25 7 23.66 7 22V20C7 19.45 7.45 19 8 19H17.5C18.88 19 20 17.88 20 16.5V11C20 10.45 20.45 10 21 10H21.84C22.56 10 23.22 10.39 23.58 11.01L24.22 12.13C24.31 12.29 24.19 12.5 24 12.5C22.62 12.5 21.5 13.62 21.5 15V18C21.5 19.38 22.62 20.5 24 20.5H26.5Z" fill="#A70000"/>
<path d="M13 27C14.1046 27 15 26.1046 15 25C15 23.8954 14.1046 23 13 23C11.8954 23 11 23.8954 11 25C11 26.1046 11.8954 27 13 27Z" fill="#A70000"/>
<path d="M21 27C22.1046 27 23 26.1046 23 25C23 23.8954 22.1046 23 21 23C19.8954 23 19 23.8954 19 25C19 26.1046 19.8954 27 21 27Z" fill="#A70000"/>
<path d="M27 17.53V19H24C23.45 19 23 18.55 23 18V15C23 14.45 23.45 14 24 14H25.29L26.74 16.54C26.91 16.84 27 17.18 27 17.53Z" fill="#A70000"/>
<path d="M18.08 7H10.69C8.65 7 7 8.65 7 10.69V17.07C7 17.62 7.45 18.07 8 18.07H17.15C18.17 18.07 19 17.24 19 16.22V7.92C19 7.41 18.59 7 18.08 7ZM15.07 12.07L12.98 14.09C12.83 14.23 12.64 14.3 12.46 14.3C12.27 14.3 12.08 14.23 11.94 14.09L10.93 13.13C10.63 12.84 10.62 12.36 10.91 12.06C11.19 11.76 11.67 11.76 11.97 12.04L12.46 12.51L14.03 10.99C14.33 10.7 14.8 10.71 15.09 11.01C15.38 11.31 15.37 11.78 15.07 12.07Z" fill="#A70000"/>
</svg>
