<svg width="34" height="34" viewBox="0 0 34 34" fill="none" xmlns="http://www.w3.org/2000/svg">
<circle cx="17" cy="17" r="15" fill="#FF4B4B" fill-opacity="0.41"/>
<path d="M17 7C14.38 7 12.25 9.13 12.25 11.75C12.25 14.32 14.26 16.4 16.88 16.49C16.96 16.48 17.04 16.48 17.1 16.49C17.12 16.49 17.13 16.49 17.15 16.49C17.16 16.49 17.16 16.49 17.17 16.49C19.73 16.4 21.74 14.32 21.75 11.75C21.75 9.13 19.62 7 17 7Z" fill="#A70000"/>
<path d="M22.0809 19.1606C19.2909 17.3006 14.7409 17.3006 11.9309 19.1606C10.6609 20.0006 9.96094 21.1506 9.96094 22.3806C9.96094 23.6106 10.6609 24.7506 11.9209 25.5906C13.3209 26.5306 15.1609 27.0006 17.0009 27.0006C18.8409 27.0006 20.6809 26.5306 22.0809 25.5906C23.3409 24.7406 24.0409 23.6006 24.0409 22.3606C24.0309 21.1406 23.3409 19.9906 22.0809 19.1606ZM19.3309 21.5606L16.8109 24.0806C16.6909 24.2006 16.5309 24.2606 16.3709 24.2606C16.2109 24.2606 16.0509 24.1906 15.9309 24.0806L14.6709 22.8206C14.4309 22.5806 14.4309 22.1806 14.6709 21.9406C14.9109 21.7006 15.3109 21.7006 15.5509 21.9406L16.3709 22.7606L18.4509 20.6806C18.6909 20.4406 19.0909 20.4406 19.3309 20.6806C19.5809 20.9206 19.5809 21.3206 19.3309 21.5606Z" fill="#A70000"/>
</svg>
